HIERARCHY
ROOT hip
{
	OFFSET 0.000000 0.000000 0.000000 
	CHANNELS 6 Xposition Yposition Zposition Xrotation Zrotation Yrotation
	JOINT abdomen
	{
		OFFSET 0.000000 3.402643 0.000000 
		CHANNELS 3 Xrotation Zrotation Yrotation
		JOINT chest
		{
			OFFSET 0.000000 8.438565 -0.680529 
			CHANNELS 3 Xrotation Zrotation Yrotation
			JOINT neck
			{
				OFFSET 0.000000 10.207942 -0.272212 
				CHANNELS 3 Xrotation Zrotation Yrotation
				JOINT head
				{
					OFFSET 0.000000 3.130431 0.000000 
					CHANNELS 3 Xrotation Zrotation Yrotation
					End Site
					{
						OFFSET 0.000000 3.130435 0.000000 
					}
				}
			}
			JOINT lCollar
			{
				OFFSET 3.470700 6.669187 -0.816635 
				CHANNELS 3 Yrotation Zrotation Xrotation
				JOINT lShldr
				{
					OFFSET 3.198488 0.000000 0.000000 
					CHANNELS 3 Zrotation Yrotation Xrotation
					JOINT lForeArm
					{
						OFFSET 10.139888 0.000000 0.000000 
						CHANNELS 3 Yrotation Zrotation Xrotation
						JOINT lHand
						{
							OFFSET 8.370511 0.000000 0.000000 
							CHANNELS 3 Zrotation Yrotation Xrotation
							End Site
							{
								OFFSET 4.083176 0.000000 0.000000 
							}
						}
					}
				}
			}
			JOINT rCollar
			{
				OFFSET -3.470700 6.669187 -0.816635 
				CHANNELS 3 Yrotation Zrotation Xrotation
				JOINT rShldr
				{
					OFFSET -3.198488 0.000000 0.000000 
					CHANNELS 3 Zrotation Yrotation Xrotation
					JOINT rForeArm
					{
						OFFSET -10.139888 0.000000 0.000000 
						CHANNELS 3 Yrotation Zrotation Xrotation
						JOINT rHand
						{
							OFFSET -8.370511 0.000000 0.000000 
							CHANNELS 3 Zrotation Yrotation Xrotation
							End Site
							{
								OFFSET -4.083176 0.000000 0.000000 
							}
						}
					}
				}
			}
		}
	}
	JOINT lThigh
	{
		OFFSET 5.308129 -1.633274 1.361059 
		CHANNELS 3 Xrotation Zrotation Yrotation
		JOINT lShin
		{
			OFFSET -2.041588 -20.007561 0.000000 
			CHANNELS 3 Xrotation Zrotation Yrotation
			JOINT lFoot
			{
				OFFSET 0.000000 -19.190928 -1.224953 
				CHANNELS 3 Xrotation Yrotation Zrotation
				End Site
				{
					OFFSET 0.000000 -2.449906 4.627600 
				}
			}
		}
	}
	JOINT rThigh
	{
		OFFSET -5.308129 -1.633274 1.361059 
		CHANNELS 3 Xrotation Zrotation Yrotation
		JOINT rShin
		{
			OFFSET 2.041588 -20.007561 0.000000 
			CHANNELS 3 Xrotation Zrotation Yrotation
			JOINT rFoot
			{
				OFFSET 0.000000 -19.190928 -1.224953 
				CHANNELS 3 Xrotation Yrotation Zrotation
				End Site
				{
					OFFSET 0.000000 -2.449906 4.627600 
				}
			}
		}
	}
}
MOTION
Frames: 9
Frame Time: 0.033333
-86.895363 48.543758 112.397072 10.644532 8.281250 -47.313049 31.625067 -21.903147 12.749959 -21.064455 7.783204 14.072267 51.063168 8.107644 2.471410 -90.898438 -13.906249 -32.949219 2.000000 -2.000000 0.000000 -79.863281 40.859375 6.298828 -132.940750 2.217379 -2.287249 8.486178 4.265195 -12.568552 -2.000000 2.000000 0.000000 59.589844 6.689452 -16.699219 83.187172 -0.343779 -2.881811 39.568512 64.651840 -130.188171 -53.325512 13.191570 9.401826 30.926498 -4.468357 -2.774762 -12.394806 3.889370 -12.002519 12.049161 -9.169854 -26.606321 6.830924 4.748572 0.730170 -8.448912 1.736045 -6.498293 
-88.844284 47.826859 114.962517 11.005859 8.105469 -48.348236 31.970224 -22.351387 11.158455 -20.849609 8.642579 13.876954 51.063168 8.107644 2.471410 -91.972656 -13.740234 -30.117186 2.000000 -2.000000 0.000000 -84.316406 41.259766 4.430270 -132.940765 2.207630 -2.286680 8.077079 4.457399 -11.752835 -2.000000 2.000000 0.000000 60.800781 4.033203 -13.359375 81.991722 0.222950 -2.702317 37.985088 64.755508 -132.667526 -50.128532 14.654782 6.612549 24.952669 -4.804557 -2.340123 -3.680809 5.606111 -12.898366 15.759786 -8.544846 -26.051773 4.381502 4.953560 0.373767 -2.981784 1.238182 -9.630173 
-90.993385 47.811100 117.667999 11.357422 7.919922 -49.207638 32.646172 -22.302156 8.953427 -20.634766 9.501954 13.515624 51.063168 8.107644 2.471410 -92.626953 -13.955078 -26.318356 2.000000 -2.000000 0.000000 -87.753906 41.435551 3.115234 -133.129013 2.066037 -2.366429 7.572413 4.463561 -11.313017 -2.000000 2.000000 0.000000 61.972656 0.781250 -8.037127 80.939667 0.452836 -2.786840 36.002205 63.949627 -134.899689 -46.233986 16.374233 4.571191 20.016548 -4.892692 -1.927312 4.807308 6.867937 -12.581438 16.869585 -9.061712 -26.043709 5.423305 4.922365 0.613743 10.271063 0.449464 -13.820585 
-93.278114 48.638302 120.463730 11.523438 7.744141 -49.568996 33.497482 -21.683418 6.444955 -20.419922 10.371094 12.990039 51.063168 8.107644 2.471410 -92.880859 -13.017577 -21.835941 2.000000 -2.000000 0.000000 -89.697266 41.728516 2.451172 -133.129288 2.065470 -2.376175 6.911951 4.556899 -10.619882 -2.000000 2.000000 0.000000 62.480465 -2.080078 -3.164063 79.194725 0.732594 -2.887998 35.094933 64.057083 -136.464340 -42.967319 17.694784 3.162847 17.193262 -5.051531 -1.735531 10.721929 8.344120 -12.479172 11.789191 -9.714044 -26.490637 11.056626 4.650762 0.922964 14.713488 -2.098692 -15.915669 
-95.590836 49.835770 123.274498 11.679688 7.392331 -49.462624 34.427147 -20.524313 4.098059 -20.214846 10.898438 12.226563 51.063168 8.107644 2.471410 -92.011719 -10.712890 -17.150253 2.000000 -2.000000 0.000000 -89.707031 41.191406 3.502525 -133.116821 2.207062 -2.296426 6.377856 4.631861 -10.519293 -2.000000 2.000000 0.000000 62.089840 -5.058594 1.630859 77.774452 0.587065 -2.739963 33.523533 63.792698 -139.025925 -41.609497 18.270565 2.327924 22.662413 -4.892580 -2.166146 6.253708 8.428465 -13.854620 2.720180 -11.584911 -27.323940 21.287661 4.340775 1.871211 18.066692 -5.773172 -13.083089 
-97.928909 50.395111 126.096848 11.855470 6.875001 -48.826954 35.247513 -18.731956 1.763439 -19.833984 11.396484 11.337892 51.063168 8.107644 2.471410 -90.253906 -8.173827 -11.640625 2.000000 -2.000000 0.000000 -86.689453 40.146484 5.973094 -133.130707 2.023639 -2.422628 6.060043 4.190659 -10.100072 -2.000000 2.000000 0.000000 61.220699 -9.052734 6.718750 76.196182 0.663220 -2.872453 33.132721 63.491329 -140.069992 -39.256180 18.846992 1.988312 26.534567 -4.730886 -2.475433 2.709118 7.884639 -15.056581 -7.470613 -14.085938 -27.704872 32.893200 4.247046 2.662820 19.751051 -10.265341 -7.318588 
-100.289917 50.024841 128.931931 11.855470 6.533203 -48.016464 36.292744 -16.429806 -1.048088 -19.638672 11.728517 10.019531 51.063168 8.107644 2.471410 -88.271484 -5.439453 -5.439454 2.000000 -2.000000 0.000000 -79.189453 38.408203 10.884974 -132.940750 2.217379 -2.287249 5.392663 3.679523 -10.470066 -2.000000 2.000000 0.000000 61.494141 -12.988280 9.716797 74.794479 0.730476 -2.682652 32.800861 62.845573 -140.462860 -35.956390 18.974413 2.632271 29.530306 -4.526533 -2.839900 -0.463902 6.878872 -15.531737 -18.465111 -16.586863 -27.675907 43.954220 3.603389 3.394575 21.768570 -14.667821 -0.426981 
-102.671143 50.206047 131.778595 11.835938 6.015625 -46.717724 37.235497 -13.905666 -3.855210 -19.423828 12.236329 8.750000 51.063168 8.107644 2.471410 -86.162109 -3.476562 1.191406 2.000000 -2.000000 0.000000 -68.847656 34.902340 16.669924 -132.764984 2.207630 -2.286680 4.812614 3.022712 -10.728638 -2.000000 2.000000 0.000000 63.486328 -16.503906 10.602695 73.211586 0.797023 -2.649457 33.314220 61.851387 -139.814499 -32.441177 19.023367 3.661802 32.525219 -4.381451 -2.882926 -6.166605 5.867729 -15.479409 -27.068699 -18.454145 -26.600096 51.874477 3.046754 3.988063 22.597826 -17.802633 4.501453 
-105.070290 50.182400 134.635666 11.650392 5.839844 -45.379375 38.110004 -10.892812 -6.690411 -19.052736 12.558595 7.314454 51.063168 8.107644 2.471410 -84.746094 -2.197265 7.870720 2.000000 -2.000000 0.000000 -61.855469 31.708986 19.423826 -132.588913 2.217946 -2.277504 3.980346 1.916203 -11.225664 -2.000000 2.000000 0.000000 66.689453 -20.312500 10.406767 71.638451 0.863570 -2.616262 34.820385 61.089977 -137.682098 -28.547960 19.164631 5.169529 34.821354 -4.366796 -3.086692 -11.962155 5.172396 -15.255276 -33.121273 -19.691998 -24.951405 55.546432 2.753739 3.997843 22.035820 -20.041338 6.017570 
